<svg width="24" height="24" viewBox="0 0 24 24" fill="none" xmlns="http://www.w3.org/2000/svg">
  <rect x="3" y="3" width="18" height="18" rx="4" fill="#DFF7EA"/>
  <path d="M9 18V15.6C7.2 15.9 6.5 15 6.2 14.2C6 13.6 5.5 13.1 5.1 12.9C4.7 12.7 5.1 12.4 5.8 12.6C6.6 12.7 7.1 13.6 7.3 13.9C7.9 15 9 14.6 9.3 14.4C9.4 14 9.6 13.7 9.8 13.5C8.1 13.3 6.3 12.6 6.3 9.7C6.3 8.9 6.6 8.2 7.1 7.6C7 7.3 6.8 6.5 7.2 5.6C7.2 5.6 8 5.3 9.3 6.3C10 6.1 10.8 6 11.5 6C12.3 6 13 6.1 13.7 6.3C15 5.3 15.8 5.6 15.8 5.6C16.2 6.5 16 7.3 15.9 7.6C16.4 8.2 16.7 8.9 16.7 9.7C16.7 12.6 14.9 13.3 13.2 13.5C13.5 13.8 13.8 14.4 13.8 15.2V18" stroke="#138A5E" stroke-width="1.6" stroke-linecap="round" stroke-linejoin="round"/>
</svg>
